<svg width="140" height="207" viewBox="0 0 140 207" fill="none" xmlns="http://www.w3.org/2000/svg">
<g clip-path="url(#clip0_39_2)">
<path fill-rule="evenodd" clip-rule="evenodd" d="M48.5293 54.4889C20.3816 63.4847 0 89.8564 0 120.989V207H46.4723C34.0442 194.523 20.8497 179.793 20.2816 162.542C19.7575 146.592 31.335 136.374 44.654 136.558C55.613 136.719 60.7258 142.187 67.5173 149.451L67.5177 149.452C68.1007 150.075 68.6961 150.712 69.3086 151.36C69.9444 150.639 70.5614 149.928 71.1668 149.231C76.7096 142.845 81.2691 137.593 90.2384 136.479C108.919 134.148 126.1 154.935 116.667 175.398C113.982 181.226 108.516 188.158 102.469 194.959C98.7786 199.112 94.8687 203.218 91.2401 207H139.6V120.989C139.6 90.0889 119.521 63.8788 91.6997 54.6933L89.9888 85.1684C89.3995 95.6659 80.7152 103.876 70.2011 103.876C59.7271 103.876 51.0614 95.7264 50.4195 85.2721L48.5293 54.4889Z" fill="#AD2235"/>
<path d="M47.2837 0H92.3159L85.023 85.2908C84.3567 93.0841 77.8363 99.0708 70.0145 99.0708C62.2216 99.0708 55.7153 93.1269 55.0126 85.3657L47.2837 0Z" fill="#AD2235"/>
</g>
<defs>
<clipPath id="clip0_39_2">
<rect width="140" height="207" fill="white"/>
</clipPath>
</defs>
</svg>
